<mxfile host="Electron" agent="Mozilla/5.0 (Windows NT 10.0; Win64; x64) AppleWebKit/537.36 (KHTML, like Gecko) draw.io/24.7.17 Chrome/128.0.6613.36 Electron/32.0.1 Safari/537.36" version="24.7.17">
  <diagram id="C5RBs43oDa-KdzZeNtuy" name="Page-1">
    <mxGraphModel dx="1248" dy="592" grid="1" gridSize="10" guides="1" tooltips="1" connect="1" arrows="1" fold="1" page="1" pageScale="1" pageWidth="827" pageHeight="1169" math="0" shadow="0">
      <root>
        <mxCell id="WIyWlLk6GJQsqaUBKTNV-0" />
        <mxCell id="WIyWlLk6GJQsqaUBKTNV-1" parent="WIyWlLk6GJQsqaUBKTNV-0" />
        <mxCell id="iQukEwfsT_GnwfpQJZu6-2" value="" style="edgeStyle=orthogonalEdgeStyle;rounded=0;orthogonalLoop=1;jettySize=auto;html=1;" edge="1" parent="WIyWlLk6GJQsqaUBKTNV-1" source="iQukEwfsT_GnwfpQJZu6-0" target="iQukEwfsT_GnwfpQJZu6-1">
          <mxGeometry relative="1" as="geometry" />
        </mxCell>
        <mxCell id="iQukEwfsT_GnwfpQJZu6-0" value="Start" style="ellipse;whiteSpace=wrap;html=1;" vertex="1" parent="WIyWlLk6GJQsqaUBKTNV-1">
          <mxGeometry x="354" y="10" width="120" height="40" as="geometry" />
        </mxCell>
        <mxCell id="iQukEwfsT_GnwfpQJZu6-4" value="" style="edgeStyle=orthogonalEdgeStyle;rounded=0;orthogonalLoop=1;jettySize=auto;html=1;" edge="1" parent="WIyWlLk6GJQsqaUBKTNV-1" source="iQukEwfsT_GnwfpQJZu6-1" target="iQukEwfsT_GnwfpQJZu6-3">
          <mxGeometry relative="1" as="geometry" />
        </mxCell>
        <mxCell id="iQukEwfsT_GnwfpQJZu6-1" value="ask to input values" style="shape=parallelogram;perimeter=parallelogramPerimeter;whiteSpace=wrap;html=1;fixedSize=1;" vertex="1" parent="WIyWlLk6GJQsqaUBKTNV-1">
          <mxGeometry x="354" y="70" width="120" height="30" as="geometry" />
        </mxCell>
        <mxCell id="iQukEwfsT_GnwfpQJZu6-6" value="" style="edgeStyle=orthogonalEdgeStyle;rounded=0;orthogonalLoop=1;jettySize=auto;html=1;" edge="1" parent="WIyWlLk6GJQsqaUBKTNV-1" source="iQukEwfsT_GnwfpQJZu6-3" target="iQukEwfsT_GnwfpQJZu6-5">
          <mxGeometry relative="1" as="geometry" />
        </mxCell>
        <mxCell id="iQukEwfsT_GnwfpQJZu6-3" value="init variables" style="whiteSpace=wrap;html=1;" vertex="1" parent="WIyWlLk6GJQsqaUBKTNV-1">
          <mxGeometry x="354" y="120" width="120" height="30" as="geometry" />
        </mxCell>
        <mxCell id="iQukEwfsT_GnwfpQJZu6-8" value="" style="edgeStyle=orthogonalEdgeStyle;rounded=0;orthogonalLoop=1;jettySize=auto;html=1;" edge="1" parent="WIyWlLk6GJQsqaUBKTNV-1" source="iQukEwfsT_GnwfpQJZu6-5" target="iQukEwfsT_GnwfpQJZu6-7">
          <mxGeometry relative="1" as="geometry" />
        </mxCell>
        <mxCell id="iQukEwfsT_GnwfpQJZu6-5" value="ask to input and input values" style="shape=parallelogram;perimeter=parallelogramPerimeter;whiteSpace=wrap;html=1;fixedSize=1;" vertex="1" parent="WIyWlLk6GJQsqaUBKTNV-1">
          <mxGeometry x="354" y="170" width="120" height="30" as="geometry" />
        </mxCell>
        <mxCell id="iQukEwfsT_GnwfpQJZu6-10" value="" style="edgeStyle=orthogonalEdgeStyle;rounded=0;orthogonalLoop=1;jettySize=auto;html=1;" edge="1" parent="WIyWlLk6GJQsqaUBKTNV-1" source="iQukEwfsT_GnwfpQJZu6-7" target="iQukEwfsT_GnwfpQJZu6-9">
          <mxGeometry relative="1" as="geometry" />
        </mxCell>
        <mxCell id="iQukEwfsT_GnwfpQJZu6-7" value="init variables and perform calculations" style="whiteSpace=wrap;html=1;" vertex="1" parent="WIyWlLk6GJQsqaUBKTNV-1">
          <mxGeometry x="354" y="220" width="120" height="40" as="geometry" />
        </mxCell>
        <mxCell id="iQukEwfsT_GnwfpQJZu6-12" value="" style="edgeStyle=orthogonalEdgeStyle;rounded=0;orthogonalLoop=1;jettySize=auto;html=1;" edge="1" parent="WIyWlLk6GJQsqaUBKTNV-1" source="iQukEwfsT_GnwfpQJZu6-9" target="iQukEwfsT_GnwfpQJZu6-11">
          <mxGeometry relative="1" as="geometry" />
        </mxCell>
        <mxCell id="iQukEwfsT_GnwfpQJZu6-9" value="output result" style="shape=parallelogram;perimeter=parallelogramPerimeter;whiteSpace=wrap;html=1;fixedSize=1;" vertex="1" parent="WIyWlLk6GJQsqaUBKTNV-1">
          <mxGeometry x="354" y="280" width="120" height="20" as="geometry" />
        </mxCell>
        <mxCell id="iQukEwfsT_GnwfpQJZu6-14" value="" style="edgeStyle=orthogonalEdgeStyle;rounded=0;orthogonalLoop=1;jettySize=auto;html=1;" edge="1" parent="WIyWlLk6GJQsqaUBKTNV-1" source="iQukEwfsT_GnwfpQJZu6-11" target="iQukEwfsT_GnwfpQJZu6-13">
          <mxGeometry relative="1" as="geometry" />
        </mxCell>
        <mxCell id="iQukEwfsT_GnwfpQJZu6-11" value="init variables" style="whiteSpace=wrap;html=1;" vertex="1" parent="WIyWlLk6GJQsqaUBKTNV-1">
          <mxGeometry x="354" y="320" width="120" height="30" as="geometry" />
        </mxCell>
        <mxCell id="iQukEwfsT_GnwfpQJZu6-16" value="" style="edgeStyle=orthogonalEdgeStyle;rounded=0;orthogonalLoop=1;jettySize=auto;html=1;" edge="1" parent="WIyWlLk6GJQsqaUBKTNV-1" source="iQukEwfsT_GnwfpQJZu6-13" target="iQukEwfsT_GnwfpQJZu6-15">
          <mxGeometry relative="1" as="geometry" />
        </mxCell>
        <mxCell id="iQukEwfsT_GnwfpQJZu6-13" value="ask to input and input values" style="shape=parallelogram;perimeter=parallelogramPerimeter;whiteSpace=wrap;html=1;fixedSize=1;" vertex="1" parent="WIyWlLk6GJQsqaUBKTNV-1">
          <mxGeometry x="354" y="370" width="120" height="30" as="geometry" />
        </mxCell>
        <mxCell id="iQukEwfsT_GnwfpQJZu6-18" value="" style="edgeStyle=orthogonalEdgeStyle;rounded=0;orthogonalLoop=1;jettySize=auto;html=1;" edge="1" parent="WIyWlLk6GJQsqaUBKTNV-1" source="iQukEwfsT_GnwfpQJZu6-15" target="iQukEwfsT_GnwfpQJZu6-17">
          <mxGeometry relative="1" as="geometry" />
        </mxCell>
        <mxCell id="iQukEwfsT_GnwfpQJZu6-15" value="perform calculations" style="whiteSpace=wrap;html=1;" vertex="1" parent="WIyWlLk6GJQsqaUBKTNV-1">
          <mxGeometry x="354" y="420" width="120" height="30" as="geometry" />
        </mxCell>
        <mxCell id="iQukEwfsT_GnwfpQJZu6-20" value="" style="edgeStyle=orthogonalEdgeStyle;rounded=0;orthogonalLoop=1;jettySize=auto;html=1;" edge="1" parent="WIyWlLk6GJQsqaUBKTNV-1" source="iQukEwfsT_GnwfpQJZu6-17" target="iQukEwfsT_GnwfpQJZu6-19">
          <mxGeometry relative="1" as="geometry" />
        </mxCell>
        <mxCell id="iQukEwfsT_GnwfpQJZu6-17" value="output result" style="shape=parallelogram;perimeter=parallelogramPerimeter;whiteSpace=wrap;html=1;fixedSize=1;" vertex="1" parent="WIyWlLk6GJQsqaUBKTNV-1">
          <mxGeometry x="354" y="470" width="120" height="20" as="geometry" />
        </mxCell>
        <mxCell id="iQukEwfsT_GnwfpQJZu6-19" value="Finish" style="ellipse;whiteSpace=wrap;html=1;" vertex="1" parent="WIyWlLk6GJQsqaUBKTNV-1">
          <mxGeometry x="374" y="510" width="80" height="30" as="geometry" />
        </mxCell>
      </root>
    </mxGraphModel>
  </diagram>
</mxfile>
